mtllib Piston Pin.mtl
g Part 1
usemtl 0.501961_0.501961_1.000000_0.000000_0.000000
o mesh0
v -0.00894724 -0.04 0.000973071 
v -0.00894724 0.04 0.000973071 
v -0.009 0.04 0 
v -0.00878959 -0.04 0.00193473 
v -0.009 -0.04 0 
v -0.00878959 0.04 0.00193473 
v -0.00894724 0.04 -0.000973071 
v -0.00852888 -0.04 0.00287371 
v -0.00852888 0.04 0.00287371 
v -0.00816818 -0.04 0.003779 
v -0.00816818 0.04 0.003779 
v -0.00771171 -0.04 0.00463998 
v -0.00771171 0.04 0.00463998 
v -0.00716484 -0.04 0.00544657 
v -0.00716484 0.04 0.00544657 
v -0.00653396 -0.04 0.0061893 
v -0.00653396 0.04 0.0061893 
v -0.00582648 -0.04 0.00685946 
v -0.00582648 0.04 0.00685946 
v -0.00505068 -0.04 0.0074492 
v -0.00505068 0.04 0.0074492 
v -0.00421568 -0.04 0.00795161 
v -0.00421568 0.04 0.00795161 
v -0.00333124 -0.04 0.00836079 
v -0.00333124 0.04 0.00836079 
v -0.00240776 -0.04 0.00867195 
v -0.00240776 0.04 0.00867195 
v -0.00145604 -0.04 0.00888144 
v -0.00145604 0.04 0.00888144 
v -0.00048725 -0.04 0.0089868 
v -0.00048725 0.04 0.0089868 
v 0.00048725 -0.04 0.0089868 
v 0.00048725 0.04 0.0089868 
v 0.00145604 -0.04 0.00888144 
v 0.00145604 0.04 0.00888144 
v 0.00240776 -0.04 0.00867195 
v 0.00240776 0.04 0.00867195 
v 0.00333124 -0.04 0.00836079 
v 0.00333124 0.04 0.00836079 
v 0.00421568 -0.04 0.00795161 
v 0.00421568 0.04 0.00795161 
v 0.00505068 -0.04 0.0074492 
v 0.00505068 0.04 0.0074492 
v 0.00582648 -0.04 0.00685946 
v 0.00582648 0.04 0.00685946 
v 0.00653396 -0.04 0.0061893 
v 0.00653396 0.04 0.0061893 
v 0.00716484 -0.04 0.00544657 
v 0.00716484 0.04 0.00544657 
v 0.00771171 -0.04 0.00463998 
v 0.00771171 0.04 0.00463998 
v 0.00816818 -0.04 0.003779 
v 0.00816818 0.04 0.003779 
v 0.00852888 -0.04 0.00287371 
v 0.00852888 0.04 0.00287371 
v 0.00878959 -0.04 0.00193473 
v 0.00878959 0.04 0.00193473 
v 0.00894724 -0.04 0.000973071 
v 0.00894724 0.04 0.000973071 
v 0.009 -0.04 3.30655e-18 
v 0.009 0.04 1.10218e-18 
v 0.00894724 -0.04 -0.000973071 
v 0.00894724 0.04 -0.000973071 
v 0.00878959 -0.04 -0.00193473 
v 0.00878959 0.04 -0.00193473 
v 0.00852888 -0.04 -0.00287371 
v 0.00852888 0.04 -0.00287371 
v 0.00816818 -0.04 -0.003779 
v 0.00816818 0.04 -0.003779 
v 0.00771171 -0.04 -0.00463998 
v 0.00771171 0.04 -0.00463998 
v 0.00716484 -0.04 -0.00544657 
v 0.00716484 0.04 -0.00544657 
v 0.00653396 -0.04 -0.0061893 
v 0.00653396 0.04 -0.0061893 
v 0.00582648 -0.04 -0.00685946 
v 0.00582648 0.04 -0.00685946 
v 0.00505068 -0.04 -0.0074492 
v 0.00505068 0.04 -0.0074492 
v 0.00421568 -0.04 -0.00795161 
v 0.00421568 0.04 -0.00795161 
v 0.00333124 -0.04 -0.00836079 
v 0.00333124 0.04 -0.00836079 
v 0.00240776 -0.04 -0.00867195 
v 0.00240776 0.04 -0.00867195 
v 0.00145604 -0.04 -0.00888144 
v 0.00145604 0.04 -0.00888144 
v 0.00048725 -0.04 -0.0089868 
v 0.00048725 0.04 -0.0089868 
v -0.00048725 -0.04 -0.0089868 
v -0.00048725 0.04 -0.0089868 
v -0.00145604 -0.04 -0.00888144 
v -0.00145604 0.04 -0.00888144 
v -0.00240776 -0.04 -0.00867195 
v -0.00240776 0.04 -0.00867195 
v -0.00333124 -0.04 -0.00836079 
v -0.00333124 0.04 -0.00836079 
v -0.00421568 -0.04 -0.00795161 
v -0.00421568 0.04 -0.00795161 
v -0.00505068 -0.04 -0.0074492 
v -0.00505068 0.04 -0.0074492 
v -0.00582648 -0.04 -0.00685946 
v -0.00582648 0.04 -0.00685946 
v -0.00653396 -0.04 -0.0061893 
v -0.00653396 0.04 -0.0061893 
v -0.00716484 -0.04 -0.00544657 
v -0.00716484 0.04 -0.00544657 
v -0.00771171 -0.04 -0.00463998 
v -0.00771171 0.04 -0.00463998 
v -0.00816818 -0.04 -0.003779 
v -0.00816818 0.04 -0.003779 
v -0.00852888 -0.04 -0.00287371 
v -0.00852888 0.04 -0.00287371 
v -0.00878959 -0.04 -0.00193473 
v -0.00878959 0.04 -0.00193473 
v -0.00894724 -0.04 -0.000973071 
vn -0.994138 1.21747e-16 0.108119 
vn -0.994138 1.21747e-16 0.108119 
vn -1 1.22465e-16 6.12323e-17 
vn -0.976621 1.19602e-16 0.21497 
vn -1 1.22465e-16 6.12323e-17 
vn -0.976621 1.19602e-16 0.21497 
vn -0.994138 1.21747e-16 -0.108119 
vn -0.947653 1.16054e-16 0.319302 
vn -0.947653 1.16054e-16 0.319302 
vn -0.907575 1.11146e-16 0.419889 
vn -0.907575 1.11146e-16 0.419889 
vn -0.856857 1.04935e-16 0.515554 
vn -0.856857 1.04935e-16 0.515554 
vn -0.796093 9.74933e-17 0.605174 
vn -0.796093 9.74933e-17 0.605174 
vn -0.725995 8.89088e-17 0.687699 
vn -0.725995 8.89088e-17 0.687699 
vn -0.647386 7.9282e-17 0.762162 
vn -0.647386 7.9282e-17 0.762162 
vn -0.561187 6.87256e-17 0.827689 
vn -0.561187 6.87256e-17 0.827689 
vn -0.468408 5.73635e-17 0.883512 
vn -0.468408 5.73635e-17 0.883512 
vn -0.370138 4.53289e-17 0.928977 
vn -0.370138 4.53289e-17 0.928977 
vn -0.267528 3.27628e-17 0.96355 
vn -0.267528 3.27628e-17 0.96355 
vn -0.161782 1.98126e-17 0.986827 
vn -0.161782 1.98126e-17 0.986827 
vn -0.0541389 6.6301e-18 0.998533 
vn -0.0541389 6.6301e-18 0.998533 
vn 0.0541389 0 0.998533 
vn 0.0541389 0 0.998533 
vn 0.161782 0 0.986827 
vn 0.161782 0 0.986827 
vn 0.267528 0 0.96355 
vn 0.267528 0 0.96355 
vn 0.370138 0 0.928977 
vn 0.370138 0 0.928977 
vn 0.468408 0 0.883512 
vn 0.468408 0 0.883512 
vn 0.561187 0 0.827689 
vn 0.561187 0 0.827689 
vn 0.647386 0 0.762162 
vn 0.647386 0 0.762162 
vn 0.725995 0 0.687699 
vn 0.725995 0 0.687699 
vn 0.796093 0 0.605174 
vn 0.796093 0 0.605174 
vn 0.856857 0 0.515554 
vn 0.856857 0 0.515554 
vn 0.907575 0 0.419889 
vn 0.907575 0 0.419889 
vn 0.947653 0 0.319302 
vn 0.947653 0 0.319302 
vn 0.976621 0 0.21497 
vn 0.976621 0 0.21497 
vn 0.994138 0 0.108119 
vn 0.994138 0 0.108119 
vn 1 0 6.12323e-17 
vn 1 0 6.12323e-17 
vn 0.994138 0 -0.108119 
vn 0.994138 0 -0.108119 
vn 0.976621 0 -0.21497 
vn 0.976621 0 -0.21497 
vn 0.947653 0 -0.319302 
vn 0.947653 0 -0.319302 
vn 0.907575 0 -0.419889 
vn 0.907575 0 -0.419889 
vn 0.856857 0 -0.515554 
vn 0.856857 0 -0.515554 
vn 0.796093 0 -0.605174 
vn 0.796093 0 -0.605174 
vn 0.725995 0 -0.687699 
vn 0.725995 0 -0.687699 
vn 0.647386 0 -0.762162 
vn 0.647386 0 -0.762162 
vn 0.561187 0 -0.827689 
vn 0.561187 0 -0.827689 
vn 0.468408 0 -0.883512 
vn 0.468408 0 -0.883512 
vn 0.370138 0 -0.928977 
vn 0.370138 0 -0.928977 
vn 0.267528 0 -0.96355 
vn 0.267528 0 -0.96355 
vn 0.161782 0 -0.986827 
vn 0.161782 0 -0.986827 
vn 0.0541389 0 -0.998533 
vn 0.0541389 0 -0.998533 
vn -0.0541389 6.6301e-18 -0.998533 
vn -0.0541389 6.6301e-18 -0.998533 
vn -0.161782 1.98126e-17 -0.986827 
vn -0.161782 1.98126e-17 -0.986827 
vn -0.267528 3.27628e-17 -0.96355 
vn -0.267528 3.27628e-17 -0.96355 
vn -0.370138 4.53289e-17 -0.928977 
vn -0.370138 4.53289e-17 -0.928977 
vn -0.468408 5.73635e-17 -0.883512 
vn -0.468408 5.73635e-17 -0.883512 
vn -0.561187 6.87256e-17 -0.827689 
vn -0.561187 6.87256e-17 -0.827689 
vn -0.647386 7.9282e-17 -0.762162 
vn -0.647386 7.9282e-17 -0.762162 
vn -0.725995 8.89088e-17 -0.687699 
vn -0.725995 8.89088e-17 -0.687699 
vn -0.796093 9.74933e-17 -0.605174 
vn -0.796093 9.74933e-17 -0.605174 
vn -0.856857 1.04935e-16 -0.515554 
vn -0.856857 1.04935e-16 -0.515554 
vn -0.907575 1.11146e-16 -0.419889 
vn -0.907575 1.11146e-16 -0.419889 
vn -0.947653 1.16054e-16 -0.319302 
vn -0.947653 1.16054e-16 -0.319302 
vn -0.976621 1.19602e-16 -0.21497 
vn -0.976621 1.19602e-16 -0.21497 
vn -0.994138 1.21747e-16 -0.108119 
f 1//1 2//2 3//3 
f 2//2 1//1 4//4 
f 3//3 5//5 1//1 
f 4//4 6//6 2//2 
f 5//5 3//3 7//7 
f 6//6 4//4 8//8 
f 8//8 9//9 6//6 
f 9//9 8//8 10//10 
f 10//10 11//11 9//9 
f 11//11 10//10 12//12 
f 12//12 13//13 11//11 
f 13//13 12//12 14//14 
f 14//14 15//15 13//13 
f 15//15 14//14 16//16 
f 16//16 17//17 15//15 
f 17//17 16//16 18//18 
f 18//18 19//19 17//17 
f 19//19 18//18 20//20 
f 20//20 21//21 19//19 
f 21//21 20//20 22//22 
f 22//22 23//23 21//21 
f 23//23 22//22 24//24 
f 24//24 25//25 23//23 
f 25//25 24//24 26//26 
f 26//26 27//27 25//25 
f 27//27 26//26 28//28 
f 28//28 29//29 27//27 
f 29//29 28//28 30//30 
f 30//30 31//31 29//29 
f 31//31 30//30 32//32 
f 32//32 33//33 31//31 
f 33//33 32//32 34//34 
f 34//34 35//35 33//33 
f 35//35 34//34 36//36 
f 36//36 37//37 35//35 
f 37//37 36//36 38//38 
f 38//38 39//39 37//37 
f 39//39 38//38 40//40 
f 40//40 41//41 39//39 
f 41//41 40//40 42//42 
f 42//42 43//43 41//41 
f 43//43 42//42 44//44 
f 44//44 45//45 43//43 
f 45//45 44//44 46//46 
f 46//46 47//47 45//45 
f 47//47 46//46 48//48 
f 48//48 49//49 47//47 
f 49//49 48//48 50//50 
f 50//50 51//51 49//49 
f 51//51 50//50 52//52 
f 52//52 53//53 51//51 
f 53//53 52//52 54//54 
f 54//54 55//55 53//53 
f 55//55 54//54 56//56 
f 56//56 57//57 55//55 
f 57//57 56//56 58//58 
f 58//58 59//59 57//57 
f 59//59 58//58 60//60 
f 60//60 61//61 59//59 
f 61//61 60//60 62//62 
f 62//62 63//63 61//61 
f 63//63 62//62 64//64 
f 64//64 65//65 63//63 
f 65//65 64//64 66//66 
f 66//66 67//67 65//65 
f 67//67 66//66 68//68 
f 68//68 69//69 67//67 
f 69//69 68//68 70//70 
f 70//70 71//71 69//69 
f 71//71 70//70 72//72 
f 72//72 73//73 71//71 
f 73//73 72//72 74//74 
f 74//74 75//75 73//73 
f 75//75 74//74 76//76 
f 76//76 77//77 75//75 
f 77//77 76//76 78//78 
f 78//78 79//79 77//77 
f 79//79 78//78 80//80 
f 80//80 81//81 79//79 
f 81//81 80//80 82//82 
f 82//82 83//83 81//81 
f 83//83 82//82 84//84 
f 84//84 85//85 83//83 
f 85//85 84//84 86//86 
f 86//86 87//87 85//85 
f 87//87 86//86 88//88 
f 88//88 89//89 87//87 
f 89//89 88//88 90//90 
f 90//90 91//91 89//89 
f 91//91 90//90 92//92 
f 92//92 93//93 91//91 
f 93//93 92//92 94//94 
f 94//94 95//95 93//93 
f 95//95 94//94 96//96 
f 96//96 97//97 95//95 
f 97//97 96//96 98//98 
f 98//98 99//99 97//97 
f 99//99 98//98 100//100 
f 100//100 101//101 99//99 
f 101//101 100//100 102//102 
f 102//102 103//103 101//101 
f 103//103 102//102 104//104 
f 104//104 105//105 103//103 
f 105//105 104//104 106//106 
f 106//106 107//107 105//105 
f 107//107 106//106 108//108 
f 108//108 109//109 107//107 
f 109//109 108//108 110//110 
f 110//110 111//111 109//109 
f 111//111 110//110 112//112 
f 112//112 113//113 111//111 
f 113//113 112//112 114//114 
f 114//114 115//115 113//113 
f 115//115 114//114 116//116 
f 116//116 7//7 115//115 
f 7//7 116//116 5//5 
o mesh1
v 0 -0.04 0 
v 0.00894724 -0.04 0.000973071 
v 0.00878959 -0.04 0.00193473 
v 0.009 -0.04 3.30655e-18 
v 0.00852888 -0.04 0.00287371 
v 0.00816818 -0.04 0.003779 
v 0.00771171 -0.04 0.00463998 
v 0.00716484 -0.04 0.00544657 
v 0.00653396 -0.04 0.0061893 
v 0.00582648 -0.04 0.00685946 
v 0.00505068 -0.04 0.0074492 
v 0.00421568 -0.04 0.00795161 
v 0.00333124 -0.04 0.00836079 
v 0.00240776 -0.04 0.00867195 
v 0.00145604 -0.04 0.00888144 
v 0.00048725 -0.04 0.0089868 
v -0.00048725 -0.04 0.0089868 
v -0.00145604 -0.04 0.00888144 
v -0.00240776 -0.04 0.00867195 
v -0.00333124 -0.04 0.00836079 
v -0.00421568 -0.04 0.00795161 
v -0.00505068 -0.04 0.0074492 
v -0.00582648 -0.04 0.00685946 
v -0.00653396 -0.04 0.0061893 
v -0.00716484 -0.04 0.00544657 
v -0.00771171 -0.04 0.00463998 
v -0.00816818 -0.04 0.003779 
v -0.00852888 -0.04 0.00287371 
v -0.00878959 -0.04 0.00193473 
v -0.00894724 -0.04 0.000973071 
v -0.009 -0.04 0 
v -0.00894724 -0.04 -0.000973071 
v -0.00878959 -0.04 -0.00193473 
v -0.00852888 -0.04 -0.00287371 
v -0.00816818 -0.04 -0.003779 
v -0.00771171 -0.04 -0.00463998 
v -0.00716484 -0.04 -0.00544657 
v -0.00653396 -0.04 -0.0061893 
v -0.00582648 -0.04 -0.00685946 
v -0.00505068 -0.04 -0.0074492 
v -0.00421568 -0.04 -0.00795161 
v -0.00333124 -0.04 -0.00836079 
v -0.00240776 -0.04 -0.00867195 
v -0.00145604 -0.04 -0.00888144 
v -0.00048725 -0.04 -0.0089868 
v 0.00048725 -0.04 -0.0089868 
v 0.00145604 -0.04 -0.00888144 
v 0.00240776 -0.04 -0.00867195 
v 0.00333124 -0.04 -0.00836079 
v 0.00421568 -0.04 -0.00795161 
v 0.00505068 -0.04 -0.0074492 
v 0.00582648 -0.04 -0.00685946 
v 0.00653396 -0.04 -0.0061893 
v 0.00716484 -0.04 -0.00544657 
v 0.00771171 -0.04 -0.00463998 
v 0.00816818 -0.04 -0.003779 
v 0.00852888 -0.04 -0.00287371 
v 0.00878959 -0.04 -0.00193473 
v 0.00894724 -0.04 -0.000973071 
vn 6.12323e-17 -1 6.12323e-17 
vn 6.12323e-17 -1 6.12323e-17 
vn 6.12323e-17 -1 6.12323e-17 
vn 6.12323e-17 -1 6.12323e-17 
vn 6.12323e-17 -1 6.12323e-17 
vn 6.12323e-17 -1 6.12323e-17 
vn 6.12323e-17 -1 6.12323e-17 
vn 6.12323e-17 -1 6.12323e-17 
vn 6.12323e-17 -1 6.12323e-17 
vn 6.12323e-17 -1 6.12323e-17 
vn 6.12323e-17 -1 6.12323e-17 
vn 6.12323e-17 -1 6.12323e-17 
vn 6.12323e-17 -1 6.12323e-17 
vn 6.12323e-17 -1 6.12323e-17 
vn 6.12323e-17 -1 6.12323e-17 
vn 6.12323e-17 -1 6.12323e-17 
vn 6.12323e-17 -1 6.12323e-17 
vn 6.12323e-17 -1 6.12323e-17 
vn 6.12323e-17 -1 6.12323e-17 
vn 6.12323e-17 -1 6.12323e-17 
vn 6.12323e-17 -1 6.12323e-17 
vn 6.12323e-17 -1 6.12323e-17 
vn 6.12323e-17 -1 6.12323e-17 
vn 6.12323e-17 -1 6.12323e-17 
vn 6.12323e-17 -1 6.12323e-17 
vn 6.12323e-17 -1 6.12323e-17 
vn 6.12323e-17 -1 6.12323e-17 
vn 6.12323e-17 -1 6.12323e-17 
vn 6.12323e-17 -1 6.12323e-17 
vn 6.12323e-17 -1 6.12323e-17 
vn 6.12323e-17 -1 6.12323e-17 
vn 6.12323e-17 -1 6.12323e-17 
vn 6.12323e-17 -1 6.12323e-17 
vn 6.12323e-17 -1 6.12323e-17 
vn 6.12323e-17 -1 6.12323e-17 
vn 6.12323e-17 -1 6.12323e-17 
vn 6.12323e-17 -1 6.12323e-17 
vn 6.12323e-17 -1 6.12323e-17 
vn 6.12323e-17 -1 6.12323e-17 
vn 6.12323e-17 -1 6.12323e-17 
vn 6.12323e-17 -1 6.12323e-17 
vn 6.12323e-17 -1 6.12323e-17 
vn 6.12323e-17 -1 6.12323e-17 
vn 6.12323e-17 -1 6.12323e-17 
vn 6.12323e-17 -1 6.12323e-17 
vn 6.12323e-17 -1 6.12323e-17 
vn 6.12323e-17 -1 6.12323e-17 
vn 6.12323e-17 -1 6.12323e-17 
vn 6.12323e-17 -1 6.12323e-17 
vn 6.12323e-17 -1 6.12323e-17 
vn 6.12323e-17 -1 6.12323e-17 
vn 6.12323e-17 -1 6.12323e-17 
vn 6.12323e-17 -1 6.12323e-17 
vn 6.12323e-17 -1 6.12323e-17 
vn 6.12323e-17 -1 6.12323e-17 
vn 6.12323e-17 -1 6.12323e-17 
vn 6.12323e-17 -1 6.12323e-17 
vn 6.12323e-17 -1 6.12323e-17 
vn 6.12323e-17 -1 6.12323e-17 
f 117//117 118//118 119//119 
f 120//120 118//118 117//117 
f 119//119 121//121 117//117 
f 121//121 122//122 117//117 
f 122//122 123//123 117//117 
f 123//123 124//124 117//117 
f 124//124 125//125 117//117 
f 125//125 126//126 117//117 
f 126//126 127//127 117//117 
f 127//127 128//128 117//117 
f 128//128 129//129 117//117 
f 129//129 130//130 117//117 
f 130//130 131//131 117//117 
f 131//131 132//132 117//117 
f 132//132 133//133 117//117 
f 133//133 134//134 117//117 
f 134//134 135//135 117//117 
f 135//135 136//136 117//117 
f 136//136 137//137 117//117 
f 137//137 138//138 117//117 
f 138//138 139//139 117//117 
f 139//139 140//140 117//117 
f 140//140 141//141 117//117 
f 141//141 142//142 117//117 
f 142//142 143//143 117//117 
f 143//143 144//144 117//117 
f 144//144 145//145 117//117 
f 145//145 146//146 117//117 
f 146//146 147//147 117//117 
f 147//147 148//148 117//117 
f 148//148 149//149 117//117 
f 149//149 150//150 117//117 
f 150//150 151//151 117//117 
f 151//151 152//152 117//117 
f 152//152 153//153 117//117 
f 153//153 154//154 117//117 
f 154//154 155//155 117//117 
f 155//155 156//156 117//117 
f 156//156 157//157 117//117 
f 157//157 158//158 117//117 
f 158//158 159//159 117//117 
f 159//159 160//160 117//117 
f 160//160 161//161 117//117 
f 161//161 162//162 117//117 
f 162//162 163//163 117//117 
f 163//163 164//164 117//117 
f 164//164 165//165 117//117 
f 165//165 166//166 117//117 
f 166//166 167//167 117//117 
f 167//167 168//168 117//117 
f 168//168 169//169 117//117 
f 169//169 170//170 117//117 
f 170//170 171//171 117//117 
f 171//171 172//172 117//117 
f 172//172 173//173 117//117 
f 173//173 174//174 117//117 
f 174//174 175//175 117//117 
f 175//175 120//120 117//117 
o mesh2
v 0 0.04 0 
v 0.00894724 0.04 -0.000973071 
v 0.00878959 0.04 -0.00193473 
v 0.009 0.04 1.10218e-18 
v 0.00852888 0.04 -0.00287371 
v 0.00816818 0.04 -0.003779 
v 0.00771171 0.04 -0.00463998 
v 0.00716484 0.04 -0.00544657 
v 0.00653396 0.04 -0.0061893 
v 0.00582648 0.04 -0.00685946 
v 0.00505068 0.04 -0.0074492 
v 0.00421568 0.04 -0.00795161 
v 0.00333124 0.04 -0.00836079 
v 0.00240776 0.04 -0.00867195 
v 0.00145604 0.04 -0.00888144 
v 0.00048725 0.04 -0.0089868 
v -0.00048725 0.04 -0.0089868 
v -0.00145604 0.04 -0.00888144 
v -0.00240776 0.04 -0.00867195 
v -0.00333124 0.04 -0.00836079 
v -0.00421568 0.04 -0.00795161 
v -0.00505068 0.04 -0.0074492 
v -0.00582648 0.04 -0.00685946 
v -0.00653396 0.04 -0.0061893 
v -0.00716484 0.04 -0.00544657 
v -0.00771171 0.04 -0.00463998 
v -0.00816818 0.04 -0.003779 
v -0.00852888 0.04 -0.00287371 
v -0.00878959 0.04 -0.00193473 
v -0.00894724 0.04 -0.000973071 
v -0.009 0.04 0 
v -0.00894724 0.04 0.000973071 
v -0.00878959 0.04 0.00193473 
v -0.00852888 0.04 0.00287371 
v -0.00816818 0.04 0.003779 
v -0.00771171 0.04 0.00463998 
v -0.00716484 0.04 0.00544657 
v -0.00653396 0.04 0.0061893 
v -0.00582648 0.04 0.00685946 
v -0.00505068 0.04 0.0074492 
v -0.00421568 0.04 0.00795161 
v -0.00333124 0.04 0.00836079 
v -0.00240776 0.04 0.00867195 
v -0.00145604 0.04 0.00888144 
v -0.00048725 0.04 0.0089868 
v 0.00048725 0.04 0.0089868 
v 0.00145604 0.04 0.00888144 
v 0.00240776 0.04 0.00867195 
v 0.00333124 0.04 0.00836079 
v 0.00421568 0.04 0.00795161 
v 0.00505068 0.04 0.0074492 
v 0.00582648 0.04 0.00685946 
v 0.00653396 0.04 0.0061893 
v 0.00716484 0.04 0.00544657 
v 0.00771171 0.04 0.00463998 
v 0.00816818 0.04 0.003779 
v 0.00852888 0.04 0.00287371 
v 0.00878959 0.04 0.00193473 
v 0.00894724 0.04 0.000973071 
vn 6.12323e-17 1 6.12323e-17 
vn 6.12323e-17 1 6.12323e-17 
vn 6.12323e-17 1 6.12323e-17 
vn 6.12323e-17 1 6.12323e-17 
vn 6.12323e-17 1 6.12323e-17 
vn 6.12323e-17 1 6.12323e-17 
vn 6.12323e-17 1 6.12323e-17 
vn 6.12323e-17 1 6.12323e-17 
vn 6.12323e-17 1 6.12323e-17 
vn 6.12323e-17 1 6.12323e-17 
vn 6.12323e-17 1 6.12323e-17 
vn 6.12323e-17 1 6.12323e-17 
vn 6.12323e-17 1 6.12323e-17 
vn 6.12323e-17 1 6.12323e-17 
vn 6.12323e-17 1 6.12323e-17 
vn 6.12323e-17 1 6.12323e-17 
vn 6.12323e-17 1 6.12323e-17 
vn 6.12323e-17 1 6.12323e-17 
vn 6.12323e-17 1 6.12323e-17 
vn 6.12323e-17 1 6.12323e-17 
vn 6.12323e-17 1 6.12323e-17 
vn 6.12323e-17 1 6.12323e-17 
vn 6.12323e-17 1 6.12323e-17 
vn 6.12323e-17 1 6.12323e-17 
vn 6.12323e-17 1 6.12323e-17 
vn 6.12323e-17 1 6.12323e-17 
vn 6.12323e-17 1 6.12323e-17 
vn 6.12323e-17 1 6.12323e-17 
vn 6.12323e-17 1 6.12323e-17 
vn 6.12323e-17 1 6.12323e-17 
vn 6.12323e-17 1 6.12323e-17 
vn 6.12323e-17 1 6.12323e-17 
vn 6.12323e-17 1 6.12323e-17 
vn 6.12323e-17 1 6.12323e-17 
vn 6.12323e-17 1 6.12323e-17 
vn 6.12323e-17 1 6.12323e-17 
vn 6.12323e-17 1 6.12323e-17 
vn 6.12323e-17 1 6.12323e-17 
vn 6.12323e-17 1 6.12323e-17 
vn 6.12323e-17 1 6.12323e-17 
vn 6.12323e-17 1 6.12323e-17 
vn 6.12323e-17 1 6.12323e-17 
vn 6.12323e-17 1 6.12323e-17 
vn 6.12323e-17 1 6.12323e-17 
vn 6.12323e-17 1 6.12323e-17 
vn 6.12323e-17 1 6.12323e-17 
vn 6.12323e-17 1 6.12323e-17 
vn 6.12323e-17 1 6.12323e-17 
vn 6.12323e-17 1 6.12323e-17 
vn 6.12323e-17 1 6.12323e-17 
vn 6.12323e-17 1 6.12323e-17 
vn 6.12323e-17 1 6.12323e-17 
vn 6.12323e-17 1 6.12323e-17 
vn 6.12323e-17 1 6.12323e-17 
vn 6.12323e-17 1 6.12323e-17 
vn 6.12323e-17 1 6.12323e-17 
vn 6.12323e-17 1 6.12323e-17 
vn 6.12323e-17 1 6.12323e-17 
vn 6.12323e-17 1 6.12323e-17 
f 176//176 177//177 178//178 
f 179//179 177//177 176//176 
f 178//178 180//180 176//176 
f 180//180 181//181 176//176 
f 181//181 182//182 176//176 
f 182//182 183//183 176//176 
f 183//183 184//184 176//176 
f 184//184 185//185 176//176 
f 185//185 186//186 176//176 
f 186//186 187//187 176//176 
f 187//187 188//188 176//176 
f 188//188 189//189 176//176 
f 189//189 190//190 176//176 
f 190//190 191//191 176//176 
f 191//191 192//192 176//176 
f 192//192 193//193 176//176 
f 193//193 194//194 176//176 
f 194//194 195//195 176//176 
f 195//195 196//196 176//176 
f 196//196 197//197 176//176 
f 197//197 198//198 176//176 
f 198//198 199//199 176//176 
f 199//199 200//200 176//176 
f 200//200 201//201 176//176 
f 201//201 202//202 176//176 
f 202//202 203//203 176//176 
f 203//203 204//204 176//176 
f 204//204 205//205 176//176 
f 205//205 206//206 176//176 
f 206//206 207//207 176//176 
f 207//207 208//208 176//176 
f 208//208 209//209 176//176 
f 209//209 210//210 176//176 
f 210//210 211//211 176//176 
f 211//211 212//212 176//176 
f 212//212 213//213 176//176 
f 213//213 214//214 176//176 
f 214//214 215//215 176//176 
f 215//215 216//216 176//176 
f 216//216 217//217 176//176 
f 217//217 218//218 176//176 
f 218//218 219//219 176//176 
f 219//219 220//220 176//176 
f 220//220 221//221 176//176 
f 221//221 222//222 176//176 
f 222//222 223//223 176//176 
f 223//223 224//224 176//176 
f 224//224 225//225 176//176 
f 225//225 226//226 176//176 
f 226//226 227//227 176//176 
f 227//227 228//228 176//176 
f 228//228 229//229 176//176 
f 229//229 230//230 176//176 
f 230//230 231//231 176//176 
f 231//231 232//232 176//176 
f 232//232 233//233 176//176 
f 233//233 234//234 176//176 
f 234//234 179//179 176//176 
